<svg xmlns="http://www.w3.org/2000/svg" width="60" height="60" viewBox="0 0 60 60" fill="none">
  <circle cx="30" cy="30" r="30" fill="#0F1114"/>
  <path d="M37.5 22.5C37.5 21.8096 36.9404 21.25 36.25 21.25L25 21.25C24.3096 21.25 23.75 21.8096 23.75 22.5C23.75 23.1904 24.3096 23.75 25 23.75L35 23.75L35 33.75C35 34.4404 35.5596 35 36.25 35C36.9404 35 37.5 34.4404 37.5 33.75L37.5 22.5ZM24.0303 36.7803L37.0303 23.7803L35.4697 22.2197L22.4697 35.2197L24.0303 36.7803Z" fill="#14DD80"/>
  <path d="M22.5 38.75C22.5 39.4404 23.0596 40 23.75 40L35 40C35.6904 40 36.25 39.4404 36.25 38.75C36.25 38.0596 35.6904 37.5 35 37.5L25 37.5L25 27.5C25 26.8096 24.4404 26.25 23.75 26.25C23.0596 26.25 22.5 26.8096 22.5 27.5L22.5 38.75ZM35.9697 24.4697L22.9697 37.4697L24.5303 39.0303L37.5303 26.0303L35.9697 24.4697Z" fill="#14DD80"/>
</svg>
