<svg width="23" height="30" viewBox="0 0 23 30" fill="none" xmlns="http://www.w3.org/2000/svg">
<path d="M6.06037 3.84674L6.06037 0.803686C6.06037 -0.0980511 5.56486 -0.248341 4.99921 0.390089L0.791878 4.82423C0.402708 5.20055 0.402708 5.91353 0.791878 6.32712L4.99921 10.7985C5.56486 11.3997 6.06037 11.2494 6.06037 10.3477V7.3046L16.8423 7.3046C18.2915 7.45489 19.3878 8.73295 19.3878 10.3104C19.3878 11.9263 18.2214 13.2416 16.736 13.3162L6.2714 13.3162C4.07893 13.4292 2.13535 14.8191 1.14545 16.7728C0.721214 17.6746 0.508528 18.6521 0.508528 19.7414C0.508528 20.8307 0.721214 21.7709 1.14545 22.6726C2.13535 24.6636 4.08006 26.092 6.30761 26.1665L16.9482 26.1665V29.1723C16.9482 30.0741 17.4075 30.2616 17.9731 29.6232L22.1804 25.189C22.5696 24.7754 22.5696 24.0613 22.1804 23.6862L17.9731 19.2147C17.4075 18.5763 16.9482 18.7639 16.9482 19.6656V22.6714L6.27254 22.6714C4.78713 22.5957 3.58568 21.3561 3.58568 19.7402C3.58568 18.1242 4.8584 16.7716 6.37888 16.7716L16.7371 16.7716C18.9647 16.6586 20.8381 15.306 21.828 13.315C22.2522 12.4132 22.5 11.3985 22.5 10.3092C22.5 9.21989 22.2522 8.24241 21.828 7.3034C20.8732 5.38691 19.0348 4.03431 16.8785 3.84674L6.06037 3.84674Z" fill="white"/>
</svg>
