<svg width="27" height="16" viewBox="0 0 27 16" fill="none" xmlns="http://www.w3.org/2000/svg">
<path d="M10.3223 8C10.3223 5.44466 11.5761 3.1767 13.5 1.71133C12.0841 0.64466 10.2979 0 8.34968 0C3.73439 0 0 3.57799 0 8C0 12.422 3.73439 16 8.34968 16C10.2979 16 12.0841 15.3553 13.5 14.2887C11.5734 12.844 10.3223 10.5553 10.3223 8Z" fill="white"/>
<path d="M27 8C27 12.422 23.2656 16 18.6503 16C16.7021 16 14.9159 15.3553 13.5 14.2887C15.4483 12.8207 16.6777 10.5553 16.6777 8C16.6777 5.44466 15.4239 3.1767 13.5 1.71133C14.9132 0.64466 16.6994 0 18.6476 0C23.2656 0 27 3.60129 27 8Z" fill="white"/>
</svg>
