<svg width="49" height="14" viewBox="0 0 49 14" fill="none" xmlns="http://www.w3.org/2000/svg">
<path d="M4.59696 0.00227828H0V14H4.31836V5.68885H4.73626L7.1044 14H10.4476L12.8158 5.68885H13.0944V14H17.552V0.00227828H13.2337C13.2013 0.00227828 13.1661 0.00178653 13.1285 0.00125995C12.5175 -0.00728086 11.2511 -0.0249839 10.7262 1.8978C10.6395 2.21577 10.5121 2.64694 10.3526 3.18692C10.0002 4.38024 9.49075 6.10494 8.91532 8.31343H8.63672C7.80091 5.25143 7.2437 3.21009 6.82579 1.8978C6.30023 -0.0276058 5.15502 -0.00722897 4.67597 0.00129484C4.64712 0.00180804 4.62069 0.00227828 4.59696 0.00227828Z" fill="white"/>
<path d="M23.8206 0.00227828H19.363V14H23.542C23.542 14 24.935 13.8542 25.4922 12.5419L28.4176 5.68885H28.6962V14H33.1538V0.00227828H28.9748C28.9748 0.00227828 27.7211 0.148088 27.1639 1.46037L24.2385 8.31343H23.8206V0.00227828Z" fill="white"/>
<path d="M39.1438 14V9.77152H43.8801C46.1089 9.77152 48.0592 8.45924 48.6164 6.70952H34.9648V14H39.1438Z" fill="white"/>
<path d="M44.1587 0.00232179C47.7806 0.00232179 49.4522 3.21013 48.895 5.83471H40.119C37.4722 5.83471 34.9648 3.06432 34.6862 0.00232179H44.1587Z" fill="white"/>
</svg>
