<svg width="72" height="42" viewBox="0 0 72 42" fill="none" xmlns="http://www.w3.org/2000/svg">
<path d="M0 9.5856L4.93204 18.3367V23.6746L0.00576966 32.4086L0 9.5856Z" fill="#5B57A2"/>
<path d="M18.937 15.1523L23.5585 12.3405L33.0167 12.3317L18.937 20.8938V15.1523Z" fill="#D90751"/>
<path d="M18.9109 9.53405L18.937 21.1202L13.9935 18.1049V0.785645L18.9109 9.53405Z" fill="#FAB718"/>
<path d="M33.0167 12.3317L23.5585 12.3405L18.9109 9.53405L13.9935 0.785645L33.0167 12.3317Z" fill="#ED6F26"/>
<path d="M18.937 32.4571V26.8358L13.9935 23.8778L13.9962 41.2142L18.937 32.4571Z" fill="#63B22F"/>
<path d="M23.547 29.6709L4.93204 18.3367L0 9.5856L32.9967 29.6594L23.547 29.6709Z" fill="#1487C9"/>
<path d="M13.9965 41.2142L18.937 32.4571L23.547 29.6709L32.9967 29.6594L13.9965 41.2142Z" fill="#017F36"/>
<path d="M0.00576966 32.4086L14.0338 23.8781L9.31765 21.0057L4.93204 23.6746L0.00576966 32.4086Z" fill="#984995"/>
<path d="M70.75 27.7209H67.1995V20.773H63.7809V27.7209H60.2304V17.8156H70.75V27.7209Z" fill="white"/>
<path fill-rule="evenodd" clip-rule="evenodd" d="M52.9385 28.0751C56.1169 28.0751 58.4771 26.1338 58.4771 23.1909C58.4771 20.3426 56.7358 18.4932 53.8255 18.4932C52.4823 18.4932 51.3741 18.9641 50.5393 19.7767C50.7386 18.0972 52.1644 16.871 53.7343 16.871C54.0966 16.871 56.8242 16.8652 56.8242 16.8652L58.3666 13.925C58.3666 13.925 54.9422 14.0027 53.3503 14.0027C49.713 14.0658 47.2562 17.3592 47.2562 21.3591C47.2562 26.019 49.6524 28.0751 52.9385 28.0751ZM52.9578 21.0975C54.138 21.0975 54.9561 21.8699 54.9561 23.1906C54.9561 24.3793 54.2291 25.3587 52.9578 25.3614C51.7418 25.3614 50.9236 24.4539 50.9236 23.2109C50.9236 21.8898 51.7418 21.0975 52.9578 21.0975Z" fill="white"/>
<path d="M44.3663 24.405C44.3663 24.405 43.5278 24.8864 42.2755 24.9775C40.8357 25.0201 39.5529 24.1143 39.5529 22.5049C39.5529 20.9351 40.6849 20.0353 42.2392 20.0353C43.1922 20.0353 44.453 20.6933 44.453 20.6933C44.453 20.6933 45.3756 19.007 45.8534 18.1637C44.9783 17.503 43.8128 17.1407 42.4571 17.1407C39.0357 17.1407 36.3857 19.3628 36.3857 22.485C36.3857 25.647 38.8765 27.8175 42.4571 27.752C43.458 27.7148 44.8387 27.3647 45.6802 26.8263L44.3663 24.405Z" fill="white"/>
</svg>
