<svg width="44" height="16" viewBox="0 0 44 16" fill="none" xmlns="http://www.w3.org/2000/svg">
<path d="M31.987 1.13656C31.284 0.843546 30.1688 0.52002 28.79 0.52002C25.2699 0.52002 22.7911 2.49189 22.7759 5.31108C22.7466 7.39107 24.5506 8.54634 25.8998 9.23987C27.2789 9.94856 27.7477 10.4111 27.7477 11.0428C27.7337 12.013 26.6334 12.4602 25.6072 12.4602C24.184 12.4602 23.4214 12.2296 22.2626 11.6899L21.7933 11.4585L21.2944 14.7093C22.1305 15.1095 23.6708 15.4645 25.2699 15.48C29.01 15.48 31.445 13.5387 31.4739 10.5344C31.488 8.88584 30.5354 7.62265 28.4818 6.59043C27.2351 5.92782 26.4716 5.48103 26.4716 4.80306C26.4863 4.18672 27.1174 3.55543 28.5246 3.55543C29.6834 3.52451 30.535 3.81713 31.1799 4.10994L31.5023 4.2637L31.987 1.13656Z" fill="white"/>
<path d="M19.0703 15.2634H15.5058L17.7353 0.781709H21.2996L19.0703 15.2634Z" fill="white"/>
<path fill-rule="evenodd" clip-rule="evenodd" d="M41.1243 0.781709H38.3672C37.5169 0.781709 36.871 1.0434 36.5041 1.98326L31.2095 15.2632H34.9496C34.9496 15.2632 35.5654 13.4758 35.6977 13.0909H40.2743C40.3766 13.5992 40.6996 15.2632 40.6996 15.2632H44L41.1243 0.781709ZM36.7244 10.133C37.0179 9.3011 38.1474 6.08119 38.1474 6.08119C38.1416 6.09359 38.1875 5.9598 38.256 5.76032L38.2568 5.75789L38.2573 5.75629C38.3597 5.45832 38.5116 5.01605 38.6165 4.69474L38.8656 5.94256C38.8656 5.94256 39.5405 9.409 39.6872 10.133H36.7244Z" fill="white"/>
<path d="M12.526 0.781709L9.03515 10.6568L8.65369 8.65405L8.65333 8.6528L7.40698 1.99902C7.20173 1.07411 6.57096 0.812219 5.79362 0.781709H0.0586708L0 1.07432C1.39874 1.45006 2.64978 1.9915 3.74594 2.66473L6.92299 15.2481H10.6924L16.2951 0.781709H12.526Z" fill="white"/>
</svg>
